<svg xmlns="http://www.w3.org/2000/svg" width="109.865" height="98.65" viewBox="0 0 109.865 98.65">
  <g id="Camada_2" data-name="Camada 2" transform="translate(0.045 0)">
    <g id="Camada_1" data-name="Camada 1">
      <path id="Caminho_18030" data-name="Caminho 18030" d="M106.9,18.59H44c-2.82,0-3.9,1.51-3,4.16l9.77,28.53c.87,2.56,2.24,3.54,4.93,3.54H96.31a4.41,4.41,0,0,0,4.7-3.53c1.93-6.65,3.83-13.31,5.81-19.95,1-3.3,1.8-6.64,3-9.88V20A2.92,2.92,0,0,0,106.9,18.59Z" fill="#707070"/>
      <path id="Caminho_18031" data-name="Caminho 18031" d="M100.83,64.53H46.38a1.22,1.22,0,0,1-1.4-1Q34.14,32.22,23.24.92C23,.24,22.74,0,22,0H5.5A5.32,5.32,0,0,0,4.22.14,5.43,5.43,0,0,0,0,6.14,5.51,5.51,0,0,0,5.5,10.9q4.34.06,8.68,0a1.15,1.15,0,0,1,1.32.95q10.86,31.3,21.74,62.6a1.24,1.24,0,0,0,1.42,1h62.49c3.84-.13,6.34-3.33,5.41-6.89C105.9,66,103.79,64.53,100.83,64.53Z" fill="#707070"/>
      <path id="Caminho_18032" data-name="Caminho 18032" d="M49.34,79.35A9.61,9.61,0,1,0,58.92,89a9.61,9.61,0,0,0-9.58-9.65Z" fill="#707070"/>
      <path id="Caminho_18033" data-name="Caminho 18033" d="M89.81,79.49a9.59,9.59,0,1,0,6.8,2.791,9.58,9.58,0,0,0-6.8-2.791Z" fill="#707070"/>
    </g>
  </g>
</svg>
