<svg xmlns="http://www.w3.org/2000/svg" width="84.008" height="106.166" viewBox="0 0 84.008 106.166">
  <g id="Camada_2" data-name="Camada 2" transform="translate(-0.002)">
    <g id="Camada_1" data-name="Camada 1" transform="translate(0.002)">
      <path id="Caminho_166" data-name="Caminho 166" d="M75.231,0c3.533,1.333,5.763,4.156,7.891,7.043.6.809.934.815,1.74.294A43.542,43.542,0,0,1,95.438,2a12.674,12.674,0,0,1,2.521-.554c4.735-.477,6.631,3.325,5.763,6.866a18.505,18.505,0,0,1-3.358,6.47A77.667,77.667,0,0,1,89.672,26.176a1.385,1.385,0,0,1-1.017.369h-28.5a1.108,1.108,0,0,1-.862-.222C54.613,22,50,17.631,46.683,12.114a13.652,13.652,0,0,1-1.6-3.8c-1.064-4.383,1.94-7.595,6.373-6.78a29.123,29.123,0,0,1,8.772,3.547A43.725,43.725,0,0,1,64.02,7.4c.718.5,1.089.5,1.588-.277A25.53,25.53,0,0,1,68.49,3.6,13.3,13.3,0,0,1,73.574,0Z" transform="translate(-32.433)" fill="#707070"/>
      <path id="Caminho_167" data-name="Caminho 167" d="M83.245,149.617A49.278,49.278,0,0,0,77,137.653a217.452,217.452,0,0,0-20.609-25.519,1.535,1.535,0,0,0-1.272-.5q-13.111.017-26.223,0a1.74,1.74,0,0,0-1.43.618c-4.5,4.918-8.892,9.933-13.023,15.173A111.485,111.485,0,0,0,2.5,145.159a19.717,19.717,0,0,0-2.086,13.5c1.662,7.814,5.941,13.879,12.15,18.659,8.642,6.65,18.6,9.374,28.683,9.548,9.545-.075,17.933-2,25.619-6.5,7.2-4.22,12.812-9.922,15.608-17.966C83.921,158.245,84.672,153.981,83.245,149.617ZM50.289,166.125a11.141,11.141,0,0,1-5.3,2.666c-.651.133-.853.388-.806,1.022a8.683,8.683,0,0,1-.053,1.859,2.153,2.153,0,0,1-2.217,1.9,2.217,2.217,0,0,1-2.122-1.909.529.529,0,0,1-.03-.2c.446-2.017-.6-2.618-2.405-3.164a8.655,8.655,0,0,1-6.284-6.42,3.477,3.477,0,0,1-.033-1.845,2.261,2.261,0,0,1,2.136-1.516,2.084,2.084,0,0,1,2.078,1.7c.374,2.6,2.244,3.505,4.489,4.242v-8.493c0-.518-.277-.6-.665-.709a16.567,16.567,0,0,1-4.444-1.865,7.337,7.337,0,0,1-1.521-11.637,10.828,10.828,0,0,1,5.8-3.2c.709-.15.9-.421.856-1.086a8.509,8.509,0,0,1,.061-1.859,2.178,2.178,0,0,1,4.309,0,8.761,8.761,0,0,1,.061,1.962c-.044.621.2.817.779.939a10.49,10.49,0,0,1,6.683,4.156A6.78,6.78,0,0,1,53,146.522a2.15,2.15,0,0,1-1.967,2.261,2.086,2.086,0,0,1-2.347-1.735c-.313-2.264-1.9-3.22-3.757-3.973-.6-.244-.74-.075-.731.554q.047,3.782,0,7.567c0,.554.186.756.712.892a15.794,15.794,0,0,1,4.289,1.754A7.452,7.452,0,0,1,50.289,166.125Z" transform="translate(-0.002 -80.699)" fill="#707070"/>
      <path id="Caminho_168" data-name="Caminho 168" d="M159.51,277.794c0-1.067.019-2.136,0-3.2,0-.574.064-.851.734-.574a9.262,9.262,0,0,1,2.544,1.336,2.848,2.848,0,0,1,.529,4.051,6.068,6.068,0,0,1-3.278,2.2c-.438.144-.532.014-.526-.4C159.521,280.069,159.51,278.922,159.51,277.794Z" transform="translate(-115.313 -198.014)" fill="#707070"/>
      <path id="Caminho_169" data-name="Caminho 169" d="M131.878,228.769c0,1.067-.017,2.134,0,3.2.014.568-.039.831-.726.571a9.245,9.245,0,0,1-2.544-1.33,2.829,2.829,0,0,1-.6-3.959,5.983,5.983,0,0,1,3.325-2.28c.413-.133.554-.047.538.388C131.867,226.494,131.878,227.63,131.878,228.769Z" transform="translate(-92.139 -162.594)" fill="#707070"/>
    </g>
  </g>
</svg>
