<svg xmlns="http://www.w3.org/2000/svg" width="97.253" height="108.454" viewBox="0 0 97.253 108.454">
  <g id="Camada_2" data-name="Camada 2" transform="translate(0.017 0.194)">
    <g id="Camada_1" data-name="Camada 1">
      <path id="Caminho_18034" data-name="Caminho 18034" d="M17.51,62.88a28.64,28.64,0,0,0-1.19,5.83,2.89,2.89,0,0,0-.08.58c.2,2.09-1.23,3.21-2.65,4.22A13.84,13.84,0,0,0,8,81c-1.09,3.94-2.15,8-1.67,12.19a5.36,5.36,0,0,0,5.33,5.15h2.47a2.25,2.25,0,0,0,2.26-2.21,2.3,2.3,0,0,0-2.23-2.27,15.91,15.91,0,0,0-2.93.06c-.67.09-.81-.11-.89-.68-.44-3-.42-6,1-8.58,1.3-2.27,2.43-4.8,4.63-6.49a2.94,2.94,0,0,1,4.22.07l.18.15c3.9,4.18,6.15,8.93,5.26,14.82-.09.6-.24.76-.88.68a15.84,15.84,0,0,0-2.58,0,2.31,2.31,0,0,0-2.44,2.29,2.23,2.23,0,0,0,2.39,2.19,11.26,11.26,0,0,0,4.13-.49,4.78,4.78,0,0,0,3.32-4.49,26.19,26.19,0,0,0-1.14-10.17c-.49-1.56-.48-3.24-1.45-4.7a18.52,18.52,0,0,0-5.16-5.35c-1.37-.91-2.46-2.19-2-4.25a26.3,26.3,0,0,1,1.33-5.31c.9-2,2.22-3.38,4.53-3.53a5.758,5.758,0,0,0,.81-.15,7.17,7.17,0,0,1,2.31-.26c.81.17.55,1.22.88,1.84A25.78,25.78,0,0,0,33.93,67,123.148,123.148,0,0,0,48,79.28c.33.25.56.59,1.08.18,5.87-4.63,11.73-9.27,16.52-15.09A10,10,0,0,0,68,60c.1-.48.37-.53.76-.46,1.38.25,2.77.46,4.14.77a3.27,3.27,0,0,1,1.75,1.49c1.64,2.15,2.19,4.68,2.68,7.27.3,1.63-.07,2.35-1.65,3.08a7.53,7.53,0,0,0-3.74,9.26,7.771,7.771,0,1,0,9.95-9.74,1.14,1.14,0,0,1-.93-1.2A23.85,23.85,0,0,0,79.35,63c.34-.29.56,0,.74.13C89.88,68.58,95.61,76.82,97,88a25.53,25.53,0,0,1-.37,9c-1.27,5.5-4.94,8.57-10.23,9.94a54.62,54.62,0,0,1-13.73,1.29h-38c-5,0-9.94.08-14.91-.13A36.69,36.69,0,0,1,9,106.37c-5.21-1.85-8.06-5.63-8.76-11a31.93,31.93,0,0,1,16-31.85C16.59,63.36,16.9,63.2,17.51,62.88Z" fill="#707070"/>
      <path id="Caminho_18035" data-name="Caminho 18035" d="M75.39,26.83a47.21,47.21,0,0,1-8.22,24.5,33.19,33.19,0,0,1-8,8.63C52.22,65,44.79,65,38,59.85c-5.74-4.34-9.51-10.18-12.33-16.67a41.47,41.47,0,0,1-3.78-16.77,26.77,26.77,0,0,1,53-5.18,21.84,21.84,0,0,1,.5,5.6Z" fill="#707070"/>
      <path id="Caminho_18036" data-name="Caminho 18036" d="M82.89,79a3.54,3.54,0,0,1-3.66,3.57A3.65,3.65,0,0,1,75.64,79a3.75,3.75,0,0,1,3.65-3.68A3.65,3.65,0,0,1,82.89,79Z" fill="#707070"/>
    </g>
  </g>
</svg>
