<svg xmlns="http://www.w3.org/2000/svg" width="114.6" height="114.622" viewBox="0 0 114.6 114.622">
  <g id="Camada_2" data-name="Camada 2" transform="translate(0.011 0.01)">
    <g id="Camada_1" data-name="Camada 1" transform="translate(-0.012 -0.01)">
      <path id="Caminho_18041" data-name="Caminho 18041" d="M62.791,0c.288.46.829.691,1.024,1.22A1.9,1.9,0,0,1,62.147,3.8a28.394,28.394,0,0,1-3.131,0c-.691,0-.852.276-.748.852S57.911,5.8,58.924,5.8a42.746,42.746,0,0,1,21.315,7.09A43.851,43.851,0,0,1,100.1,46.856c0,.691.219.9.9.852.886-.069,1.8,0,2.682,0a2.118,2.118,0,0,1,2.049,1.151,1.957,1.957,0,0,1-.276,2.2l-6.491,9.081A2.647,2.647,0,0,1,96.537,61.2H16.213a3.223,3.223,0,0,1-2.969-1.542c-1.922-2.889-3.89-5.663-5.939-8.436a2.152,2.152,0,0,1-.437-2.463,2.3,2.3,0,0,1,2.3-1.07h.9c2.405,0,2.371,0,2.6-2.405A42.815,42.815,0,0,1,25.915,18.014a42.987,42.987,0,0,1,20.5-11.107,35.771,35.771,0,0,1,7.159-1.013c1.059,0,.691-.7.76-1.22s-.1-.875-.771-.829H50.879a1.9,1.9,0,0,1-2.106-1.312,1.818,1.818,0,0,1,.875-2.3c.081,0,.115-.161.161-.242Z" transform="translate(1.018 0.01)" fill="#00915a"/>
      <path id="Caminho_18042" data-name="Caminho 18042" d="M114.589,66.91c-.76,2.152-2.509,3.453-4.2,4.707Q96.4,82.494,82.443,93.4A12,12,0,0,1,76.4,95.776c-7.412.909-14.79,2.152-22.179,3.292a114.964,114.964,0,0,1-17.391,1.542H14.573c-.852,0-1.151.173-1.151,1.082.081,1.22,0,2.463,0,3.683,0,.679-.092.967-.886.967H.8c-.633,0-.829-.161-.806-.794v-4.926Q0,79.2,0,57.737c0-.944.242-1.151,1.151-1.151h11.3c.771,0,1.059.161.99.967s0,1.865,0,2.831a2.141,2.141,0,0,0,1.208-.552,34.908,34.908,0,0,1,12.453-4.8,11.636,11.636,0,0,1,8.954,1.772,20.233,20.233,0,0,0,12.488,3.637,49.49,49.49,0,0,1,9.046.23,15.906,15.906,0,0,1,11.268,7.619A8.9,8.9,0,0,1,69.9,70.985c.207.84-.081,1-.863.99H52.818a14.732,14.732,0,0,0-5.755.932,6.963,6.963,0,0,0-4.477,6.48A1.991,1.991,0,0,0,44.4,81.435a1.83,1.83,0,0,0,1.911-1.784c0-2.44,1.611-3.453,3.775-3.764a20.208,20.208,0,0,1,3.015-.138H69.772a3.718,3.718,0,0,0,2.2-.61c2.141-1.473,4.673-1.623,7.1-2.072a10.255,10.255,0,0,0,3.453-1.347Q89.6,67.371,96.7,63.055a36.911,36.911,0,0,1,8.275-3.8c4.316-1.358,7.838.76,9.392,5.133,0,.058.1.081.161.115Z" transform="translate(0.012 8.28)" fill="#00915a"/>
    </g>
  </g>
</svg>
