<svg id="Camada_2" data-name="Camada 2" xmlns="http://www.w3.org/2000/svg" width="141.993" height="120.943" viewBox="0 0 141.993 120.943">
  <g id="Camada_1" data-name="Camada 1" transform="translate(0 0)">
    <path id="Caminho_164" data-name="Caminho 164" d="M141.993,88.774c-.789,1.679-1.2,3.525-2.378,5.041a11.882,11.882,0,0,1-3.786,3.39c-.866.455-.866.911-.581,1.738,2.062,6.067,4.044,12.169,6.105,18.229.348,1,.32,1.512-.848,1.822a43.29,43.29,0,0,0-5.247,1.738c-1.193.487-1.537.115-1.884-.994-1.179-3.772-2.472-7.51-3.866-11.693-.389,1.179-.65,1.971-.914,2.764-.994,2.973-2.041,5.931-2.955,8.925-.348,1.116-.7,1.485-1.884,1a49.177,49.177,0,0,0-5.379-1.777c-1.043-.285-1.078-.734-.768-1.648,2.086-6.112,4.068-12.249,6.164-18.354.33-.96.1-1.321-.7-1.822a12.348,12.348,0,0,1,1.193-21.814c.643-.316,1.116-.508,1.113-1.443-.045-12.715-.031-25.433-.031-38.151,0-.136-.024-.275-.038-.424-.5-.264-.883.125-1.269.278Q98.231,45.87,72.443,56.21a3.536,3.536,0,0,1-2.879.042Q35.516,42.535,1.453,28.858c-.41-.15-.807-.348-1.453-.612,4.249-1.711,8.244-3.324,12.242-4.93Q40.912,11.821,69.578.292a3.383,3.383,0,0,1,2.75,0q34.108,13.733,68.229,27.429c.4.156,1.1.028,1.071.793-1.085,1.1-2.583,1.391-3.922,1.957-4.172,1.808-3.609.748-3.619,5.427-.028,12.141,0,24.286-.038,36.427a3.016,3.016,0,0,0,1.829,3.16,11.9,11.9,0,0,1,5.514,6.175c.424.953.257,2,.6,2.952Z" transform="translate(0 0)" fill="#00915a"/>
    <path id="Caminho_165" data-name="Caminho 165" d="M171.34,145.87c-.261,4.694.518,9.294-.452,13.793-1.043,4.868-4.381,8.118-8.4,10.729-5.848,3.8-12.4,5.625-19.227,6.509a64.986,64.986,0,0,1-30.214-2.691c-5.16-1.8-9.878-4.363-13.393-8.72a13.567,13.567,0,0,1-3.247-8.362c-.08-3.7-.021-7.4-.021-11.258l10.156,4.078q13.142,5.278,26.281,10.573a2.535,2.535,0,0,0,2.086-.035q17.5-7.055,35.008-14.064C170.318,146.263,170.739,146.1,171.34,145.87Z" transform="translate(-62.864 -95.154)" fill="#00915a"/>
  </g>
</svg>
