<svg xmlns="http://www.w3.org/2000/svg" width="90.38" height="90.431" viewBox="0 0 90.38 90.431">
  <g id="Camada_2" data-name="Camada 2" transform="translate(0 0.03)">
    <g id="Camada_1" data-name="Camada 1" transform="translate(0 -0.03)">
      <path id="Caminho_18048" data-name="Caminho 18048" d="M90.373,39.85c-.066-1.49-.057-3,0-4.5.18-4.332-3.276-7.542-6.06-8.574-1.327-.491-1.335-.491-1.335-1.941V8.978c0-4.2-4.094-9.008-9.008-9.008q-28.841.139-57.7.025C11.415-.005,7.214,4.777,7.288,9c.049,2.76,0,5.519,0,8.279v8.025c0,.581-.066,1.04-.753,1.294C2.907,27.927.483,30.294,0,34.314v6.551a5.151,5.151,0,0,0,2.547,3.791,6.232,6.232,0,0,0,3.529.868c1.187,0,1.22,0,1.228,1.245v.721c0,8.639.074,17.27,0,25.91a9.909,9.909,0,0,0,6.273,9.131c1.155.409,1.146.434,1.171,1.638.066,3.407,1.466,5.274,4.684,6.232h9.835a6.764,6.764,0,0,0,2-.565,5.986,5.986,0,0,0,2.874-5.4c0-1.31,0-1.327,1.318-1.327H54.817c1.31,0,1.31,0,1.327,1.327,0,3.276,1.58,5.241,4.692,5.97h9.7a5.044,5.044,0,0,0,4-2.375,6.715,6.715,0,0,0,1.04-3.767c0-1.277,0-1.294,1.171-1.72a9.9,9.9,0,0,0,6.273-9.131c-.106-8.7,0-17.393,0-26.09,0-1.851-.106-1.761,1.687-1.769h.442C87.474,45.378,90.545,43.265,90.373,39.85ZM24.157,7.684H65.512a5.589,5.589,0,0,1,.868,11.145c-3.521.2-7.042.049-10.572.074s-7.108,0-10.646,0h-20.1c-2.457,0-4.4-.819-5.585-3.079a5.593,5.593,0,0,1,4.676-8.14Zm5.88,58.346a5.568,5.568,0,1,1-1.555-3.977A5.593,5.593,0,0,1,30.037,66.03Zm41.387.172a5.6,5.6,0,1,1-1.5-4.087A5.6,5.6,0,0,1,71.424,66.2Zm-.475-13.643a9.008,9.008,0,0,1-2.1.18H21.218a5.773,5.773,0,0,1-5.609-3.194,6.142,6.142,0,0,1-.532-2.874c0-5.937.041-11.874,0-17.811a5.853,5.853,0,0,1,6.232-6.183q23.9.049,47.783,0a5.683,5.683,0,0,1,5.929,4.25,7.2,7.2,0,0,1,.2,2.006V46.557A5.733,5.733,0,0,1,70.949,52.559Z" transform="translate(0 0.03)" fill="#707070"/>
    </g>
  </g>
</svg>
