<svg id="Camada_2" data-name="Camada 2" xmlns="http://www.w3.org/2000/svg" width="518" height="108.305" viewBox="0 0 518 108.305">
  <g id="Camada_1" data-name="Camada 1">
    <path id="Caminho_133" data-name="Caminho 133" d="M0,108.035V1.844C.024-.235-.235.044,1.873.044H105.041c.553,0,1.1,0,1.648-.034a.563.563,0,0,1,.293.4,4.285,4.285,0,0,0-.093,1.5V106.24a4.529,4.529,0,0,0,.088,1.5.631.631,0,0,1-.7.523H1.546C1.042,108.245.489,108.485,0,108.035Z" transform="translate(0 -0.005)" fill="#00aa6d"/>
    <path id="Caminho_134" data-name="Caminho 134" d="M218.413.4,218.12,0a.489.489,0,0,1,.293.4Z" transform="translate(-111.431)" fill="#fff"/>
    <path id="Caminho_135" data-name="Caminho 135" d="M111.321,41.4A83.525,83.525,0,0,1,125.1,36.451a63.185,63.185,0,0,1,7.479-1.717,1.213,1.213,0,0,0,.9-.377,10.428,10.428,0,0,0-2.446-1.957,124.518,124.518,0,0,0-12.263-7.009c-.044-.533.3-.333.558-.289a56.563,56.563,0,0,1,9.973,1.834A55.491,55.491,0,0,1,143.115,32.2a1.79,1.79,0,0,0,1.438.093,55.338,55.338,0,0,1,7.337-.841A6.628,6.628,0,0,1,149.8,34.8c-.67.621-1.428,1.149-2.147,1.717-.245.191-.548.318-.489.743A23.632,23.632,0,0,1,147,44.106a83.614,83.614,0,0,1-2.72,14.121,5.732,5.732,0,0,1-.778,1.8c-.093-1.746-.171-3.307-.264-4.891a42.34,42.34,0,0,0-1.908-11.6c-.846-2.387-.817-2.343-2.989-1.169-3.15,1.732-6.373,3.355-9.582,5.038-1.052.553-2.084,1.145-3.126,1.717a.24.24,0,0,1-.347,0,96.092,96.092,0,0,0,6.359-8.061,4.784,4.784,0,0,0,.836-1.467,20.494,20.494,0,0,0-3.463.181,143.187,143.187,0,0,0-16.572,1.878c-.269.049-.543.054-.817.078S111.257,41.646,111.321,41.4Z" transform="translate(-56.861 -12.787)" fill="#fff"/>
    <path id="Caminho_136" data-name="Caminho 136" d="M77.46,79.013c-2.852-.347-5.7-.8-8.579-.88a46.677,46.677,0,0,0-8.315.489,2.335,2.335,0,0,0-2.059,1.82A69.519,69.519,0,0,0,55.787,90.9c-.093.489-.21.978-.377,1.722-1.59-3.727-2.563-7.42-3.776-11.093a33.843,33.843,0,0,0-5.522,4.011c-2.6,2.186-5.126,4.427-7.67,6.657-.269.059-.4,0-.318-.318A62.765,62.765,0,0,1,48.357,77.1c-2.935-2.245-6.359-2.509-9.709-3.106a22.662,22.662,0,0,1,5.654-1.34,36.1,36.1,0,0,1,8.746-.328,3.17,3.17,0,0,0,2.27-.68,29.054,29.054,0,0,1,8.393-4.265c.284-.064.4.044.323.328a21.522,21.522,0,0,0-2.446,5.2A49.5,49.5,0,0,1,78.047,78.72C78.062,79.243,77.749,79.1,77.46,79.013Z" transform="translate(-19.464 -34.414)" fill="#fff"/>
    <path id="Caminho_137" data-name="Caminho 137" d="M40.7,140.611a34.8,34.8,0,0,0-2.446,4.216c-1.546,3.424-1.467,2.495,1.013,4.627a23.478,23.478,0,0,0,5.762,3.424c.21.093.421.176.616.284.073.039.117.127.289.328a45.278,45.278,0,0,1-5.449-.641c-1.164-.245-2.318-.528-3.478-.8-.836-.191-.939-.137-.978.729a17.188,17.188,0,0,0,.357,4.5c.059.264.093.533.137.817-.489,0-.646-.357-.876-.607a26.154,26.154,0,0,1-4.617-6.765,3.1,3.1,0,0,0-1.6-1.59,52.339,52.339,0,0,1-6-3.3,1.957,1.957,0,0,1-.866-.719A22.659,22.659,0,0,1,27,143.385c1.394-.489,1.467-.455,1.242-1.957a49.027,49.027,0,0,1,.147-11.074c.489-.054.391.308.445.543a44.631,44.631,0,0,0,3.238,9.841c.6,1.184.6,1.179,1.957.978Z" transform="translate(-11.525 -66.591)" fill="#fff"/>
    <path id="Caminho_138" data-name="Caminho 138" d="M104.922,165.7a35.316,35.316,0,0,1-4.769,4.319,1.609,1.609,0,0,0-.611,2,5.3,5.3,0,0,1,.367,1.761,13.7,13.7,0,0,1-3.135.3,4.661,4.661,0,0,0-2.216.548,36.426,36.426,0,0,1-8.565,3.223c-.284.088-.362-.039-.308-.3a35.452,35.452,0,0,0,4.564-3.752,23.941,23.941,0,0,1-5.508-2.04,42.682,42.682,0,0,0,5.468-.548c3.223-.567,3.233-.553,5.312-3.1.978-1.2,1.922-2.446,2.959-3.747a29.094,29.094,0,0,1,.489,3.913,40.246,40.246,0,0,0,5.6-2.935C104.858,165.29,104.961,165.412,104.922,165.7Z" transform="translate(-43.291 -83.971)" fill="#feffff"/>
    <path id="Caminho_139" data-name="Caminho 139" d="M125.647,165.9l-.338-.333a2.6,2.6,0,0,1,1.154-.792.191.191,0,0,1,.093.205.105.105,0,0,1-.073.112A1.57,1.57,0,0,1,125.647,165.9Z" transform="translate(-64.017 -84.181)" fill="#ccefe4"/>
    <path id="Caminho_140" data-name="Caminho 140" d="M110.323,58.49l.313.313c-.362.347-.773.249-1.286.24A1.3,1.3,0,0,1,110.323,58.49Z" transform="translate(-55.863 -29.881)" fill="#b3e6d4"/>
    <path id="Caminho_141" data-name="Caminho 141" d="M126.438,24.921c-.191.088-.44.064-.558.289a.729.729,0,0,1-.68-.445,1.223,1.223,0,0,1,1.238.157Z" transform="translate(-63.961 -12.6)" fill="#96ddc6"/>
    <path id="Caminho_142" data-name="Caminho 142" d="M118.57,90.873c.191-.1.46-.044.567-.293l.836.416A1.414,1.414,0,0,1,118.57,90.873Z" transform="translate(-60.574 -46.274)" fill="#a0e1cd"/>
    <path id="Caminho_143" data-name="Caminho 143" d="M37.69,117.49l.318.318a1.218,1.218,0,0,1-.748.7A1.091,1.091,0,0,1,37.69,117.49Z" transform="translate(-19.03 -60.022)" fill="#a3e1cd"/>
    <path id="Caminho_144" data-name="Caminho 144" d="M86.129,191.32l.308.3c-.068.059-.127.147-.205.166-.205.059-.489.171-.577-.078S85.9,191.379,86.129,191.32Z" transform="translate(-43.751 -97.739)" fill="#ace5d3"/>
    <path id="Caminho_145" data-name="Caminho 145" d="M90.783,67.528,90.46,67.2c.166-.113.352-.328.528-.068C91.081,67.274,90.954,67.45,90.783,67.528Z" transform="translate(-46.213 -34.233)" fill="#91dcc4"/>
    <path id="Caminho_146" data-name="Caminho 146" d="M127.68,164.831v-.318c.083-.171.318-.333.386-.215C128.243,164.621,127.866,164.689,127.68,164.831Z" transform="translate(-65.228 -83.914)" fill="#ade5d2"/>
    <path id="Caminho_147" data-name="Caminho 147" d="M139.722,74.23h.347c-.117.176-.259.362-.489.205C139.483,74.382,139.59,74.259,139.722,74.23Z" transform="translate(-71.288 -37.922)" fill="#a1e2ce"/>
    <path id="Caminho_148" data-name="Caminho 148" d="M357.256,90.144q.176-3.859,0-7.709c-.235-2.4-.044-4.8-.108-7.2a5.41,5.41,0,0,0-.117-1.751,5.87,5.87,0,0,0-.049-2.049c0-.181-.029.054-.049-.132-.391-4.128-.391-4.128,3.7-4.128h5.082c.391,0,.827-.166,1.169.191l-.034-.034c.294.2.386.548.607.8h0a.788.788,0,0,1,.254.323h0a3.159,3.159,0,0,1,.582.827h0a.44.44,0,0,1,.245.338v-.029c.254.068.181.377.352.489h0a.729.729,0,0,1,.235.333v-.024c.23.083.152.382.347.489h0c.068.117.191.2.23.328h0a3.149,3.149,0,0,1,.572.832h0a3.468,3.468,0,0,1,.563.841h0a4.041,4.041,0,0,1,.563.836h0a6.358,6.358,0,0,1,.572.827h0c.108.093.225.181.23.342h0c.259.073.186.372.342.489h0a6.411,6.411,0,0,1,.411.768h0a4.223,4.223,0,0,1,.558.846h0a3.663,3.663,0,0,1,.563.841h0a3.915,3.915,0,0,1,.563.841h0a3.087,3.087,0,0,1,.558.851h0c.21.1.137.391.328.489h0c.069.117.186.2.225.333h0c.215.1.142.391.323.518h0c.083.108.2.2.22.342h0c.245.083.171.377.342.489h0a.626.626,0,0,1,.23.338L376.841,82c.245.093.176.382.338.528h0c.108.1.225.181.23.347v-.029c.264.083.2.372.338.533h0a3.869,3.869,0,0,1,.558.841h0c.2.112.132.4.323.489h0c.068.112.186.191.225.328h0c.21.1.137.391.328.489h0c.068.117.191.2.23.333h0c.215.1.147.391.328.518h0c.083.108.205.186.23.333h0c.23.093.157.386.337.489h0c.088.108.205.191.225.342l-.024-.029c.245.088.171.382.347.489h0c.093.1.21.191.225.342V88.31c.249.1.186.382.323.543h0c.2.122.132.4.308.528h0c.152.152.1.406.274.543h0l.191.2c.4-.308.205-.68.113-1.037l-.059.029c-.323-1.467.108-3-.23-4.476a4.456,4.456,0,0,0-.049-1.59,42.255,42.255,0,0,1-.108-4.657,4.289,4.289,0,0,0-.108-1.5,5.317,5.317,0,0,0-.059-1.824c-.318-1.844.113-3.722-.225-5.566a4.144,4.144,0,0,0-.049-1.59c-.22-.641.2-.675.651-.675H389.6c.45,0,.876.034.646.68a1.658,1.658,0,0,0-.049.978c-.323,1.766.1,3.561-.23,5.327a8.22,8.22,0,0,0-.039,2.323,2.294,2.294,0,0,0-.117.944V96a2.221,2.221,0,0,0,.122.944,6.132,6.132,0,0,0,.044,2.049c.313,1.384-.108,2.808.225,4.192a1.1,1.1,0,0,0,.049.758c.289.851.1,1.3-.91,1.242-2.084-.132-4.182.191-6.261-.171h0a4.577,4.577,0,0,1-.553-.846h0a3.717,3.717,0,0,1-.562-.841h0a3.773,3.773,0,0,1-.562-.841h0a3.613,3.613,0,0,1-.562-.841h0a4.011,4.011,0,0,1-.562-.841h0a3.717,3.717,0,0,1-.562-.841h0a3.772,3.772,0,0,1-.562-.841h0a3.613,3.613,0,0,1-.562-.841h0a4.012,4.012,0,0,1-.562-.841h0a4.2,4.2,0,0,1-.567-.836h0a5.319,5.319,0,0,1-.562-.836h0c-.113-.093-.23-.176-.24-.342l.024.029c-.259-.078-.186-.377-.347-.518h0c-.108-.1-.225-.181-.23-.347v.029c-.259-.073-.186-.377-.342-.518h0c-.108-.093-.23-.181-.235-.342h.024c-.259-.073-.186-.372-.347-.489h0c-.108-.093-.225-.181-.23-.342v.024c-.259-.073-.186-.372-.342-.514h0c-.108-.093-.23-.181-.235-.342l.024.029c-.259-.073-.181-.377-.352-.489h0a.631.631,0,0,1-.23-.342v.029c-.245-.083-.171-.382-.342-.489h0c-.093-.1-.21-.186-.23-.342l.024.029c-.245-.083-.171-.382-.342-.489h0a.763.763,0,0,1-.24-.328h0c-.23-.093-.157-.386-.338-.489h0c-.078-.108-.2-.186-.24-.323h0c-.21-.1-.137-.391-.333-.489h0c-.068-.113-.191-.191-.23-.328h0c-.21-.1-.137-.391-.328-.489h0c-.068-.117-.181-.2-.235-.323h0a3.424,3.424,0,0,1-.5-.724h0a3.914,3.914,0,0,1-.562-.841h0a3.47,3.47,0,0,1-.562-.841h0a3.859,3.859,0,0,1-.562-.836h0c-.127-.083-.245-.171-.245-.338h.024c-.269-.068-.191-.372-.352-.489h0c-.108-.093-.225-.181-.23-.342h0c-.259-.073-.186-.372-.347-.489h0c-.1-.093-.225-.181-.23-.342l.024.024c-.259-.068-.181-.372-.357-.489h0c-.093-.1-.21-.186-.225-.338v.029c-.245-.093-.176-.382-.337-.528h0c-.1-.1-.225-.181-.23-.347l.024.029c-.264-.088-.2-.372-.328-.543h0c-.205-.117-.147-.391-.308-.538h0c-.171-.147-.122-.406-.279-.553h0c-.323-.108-.416.1-.411.342.059,5.439-.166,10.883.113,16.327a7.4,7.4,0,0,0,.044,2.323c.308,1.673-.1,3.38.215,5.053a2.793,2.793,0,0,0,.049,1.272c.137.411.264.934-.357.924-2.817-.044-5.64.269-8.442-.161a1.017,1.017,0,0,0,0-.66c.3-1.027-.078-2.1.225-3.126a3.248,3.248,0,0,0,.044-1.5c.264-2.4.039-4.8.122-7.2A22.054,22.054,0,0,1,357.256,90.144Z" transform="translate(-182.196 -34.295)"/>
    <path id="Caminho_149" data-name="Caminho 149" d="M732.62,68.321a.122.122,0,0,0,.2.049c.259.2.665-.029.885.3h-.029c.2.093.43.083.606.23h0c.191.279.621,0,.788.338h0c.191.1.45.059.582.279h0c.181.113.45.059.563.3l-.029-.024c.152,0,.23.147.347.215h0c.117.191.4.117.489.318h0c.279.186.636.279.8.607H737.8a.377.377,0,0,1,.333.254h0a.621.621,0,0,1,.3.284h0a.758.758,0,0,1,.294.289h0a.67.67,0,0,1,.289.293h0a.416.416,0,0,1,.254.333v-.024c.323.181.43.523.6.817h0c.215.117.152.391.318.538h0c.166.147.117.4.279.553h0c.161.166.142.406.24.6v-.029c.323.23.112.631.293.91l-.039.093.073.073c.323.553-.029,1.2.245,1.756a2.632,2.632,0,0,0,0,1.2c-.323.631.1,1.365-.269,1.991h0c-.235.24-.034.6-.245.841-1.277,3.2-3.766,5.058-6.892,6.2-.3.108-.587.24-.876.367-.034,0-.049.073-.132.191,1.169,1.741,2.338,3.522,3.551,5.278,1.6,2.323,3.047,4.754,4.784,6.985.264.083.205.382.362.533h0c.108.1.225.181.23.347v-.029c.259.078.186.377.342.518h0c.108.088.23.176.235.337h-.024c.264.073.186.372.347.489h0c.108.093.225.181.23.342h0c.259.073.186.372.347.489h0a.6.6,0,0,1,.24.337l-.024-.029c.245.088.176.382.342.518h0c.269.587-.132.783-.563.778-3.478-.054-6.97.338-10.438-.24h0c-.166-.137-.108-.4-.289-.533h0c-.083-.108-.2-.2-.215-.342v.029c-.249-.113-.2-.382-.3-.572h0c-.24-.112-.186-.382-.3-.562h0c-.225-.117-.166-.386-.313-.548h0c-.186-.137-.132-.4-.294-.548h0c-.161-.147-.108-.406-.284-.538h0c-.083-.108-.2-.191-.22-.342v.029c-.254-.108-.2-.382-.313-.562v.024c-.22-.113-.161-.391-.313-.543h0c-.176-.142-.122-.4-.289-.548h0c-.093-.1-.215-.191-.22-.347h0c-.269-.093-.21-.372-.313-.558v.024c-.24-.1-.176-.386-.323-.543h0c-.181-.132-.122-.4-.3-.538h0c-.088-.1-.21-.191-.215-.347h0c-.264-.083-.2-.372-.328-.538h0c-.205-.122-.147-.4-.308-.538h0c-.161-.137-.1-.4-.293-.523h0c-.068-.117-.2-.2-.215-.347v.029c-.235-.1-.171-.382-.328-.533h0c-.181-.127-.112-.4-.3-.518h0c-.068-.117-.2-.2-.21-.347v.029c-.24-.1-.176-.382-.328-.538h0c-.186-.127-.122-.4-.3-.528h0c-.088-.1-.205-.191-.22-.342v.029c-.245-.093-.181-.382-.333-.528h0c-.176-.132-.112-.4-.3-.523h0c-.068-.113-.2-.191-.225-.333v.024c-.225-.108-.161-.386-.323-.528h0a5.338,5.338,0,0,1-.528-.861h0c-.21-.108-.142-.391-.323-.518h0c-.088-.108-.205-.191-.22-.342v.029c-.245-.088-.171-.382-.342-.518h0a6.7,6.7,0,0,1-.533-.851h0c-.2-.112-.127-.4-.318-.489h0c-.068-.112-.186-.2-.23-.328h0c-.21-.1-.137-.391-.333-.489h0c-.068-.112-.2-.191-.225-.333v.024a2.108,2.108,0,0,1-.562-.851h.024c.3-.714.846-.308,1.311-.274a3.786,3.786,0,0,0,1.927,0c.43-.264.978.068,1.389-.24h0c.259-.249.636-.078.91-.254.083.049.147.034.186-.054.171-.142.411-.108.587-.23H727c.147-.2.4-.166.592-.259h0c.108-.24.386-.181.548-.318h0a6.353,6.353,0,0,1,.827-.572h0a1.045,1.045,0,0,1,.3-.269h0a.724.724,0,0,1,.293-.289h0a.739.739,0,0,1,.293-.293h0a.979.979,0,0,1,.264-.3h0c.166-.142.088-.44.352-.489h0c0-.161.127-.245.22-.347h0c.166-.142.112-.391.254-.548a.112.112,0,0,0,.054-.186c.176-.279,0-.655.254-.91h0a4.467,4.467,0,0,0,0-2.3.117.117,0,0,0-.039-.2c-.225-.235,0-.607-.264-.827h0c-.161-.152-.117-.4-.274-.553h0c-.205-.264-.357-.567-.548-.836h0a.939.939,0,0,1-.269-.3h0a.978.978,0,0,1-.3-.274h0a4.77,4.77,0,0,1-.817-.582h0c-.176-.122-.445-.068-.558-.3h0c-.191-.1-.455-.054-.577-.289h0c-.2-.093-.435-.078-.6-.235h0c-.225-.249-.6-.034-.831-.259l-.083-.073-.108.029c-.279-.176-.636-.029-.91-.225l-.1-.073-.122.034c-.533-.3-1.164.054-1.7-.235a1.7,1.7,0,0,0-.978-.054,5.645,5.645,0,0,0-2.446,0,1.335,1.335,0,0,0-.944.044c-1.091-.044-1.321.538-1.267,1.521a9.459,9.459,0,0,1-.083,2.852,12.037,12.037,0,0,0-.049,2.876c-.274,2.729-.093,5.464-.1,8.2a56.65,56.65,0,0,0,.1,6.7,13.8,13.8,0,0,0,.049,3.145c.318,1.663-.113,3.355.225,5.018a1.125,1.125,0,0,0,.044.758c.186.342.068.714.117,1.071.1.788-.24,1.013-.978.978-2.636-.039-5.268,0-7.9,0-1.57,0-1.57,0-1.541-1.536a1.535,1.535,0,0,1,.112-.8,1.659,1.659,0,0,0,.049-.978c.313-1.673-.088-3.38.22-5.053a13.849,13.849,0,0,0,.044-3.15,38.674,38.674,0,0,0,.108-5.733,79.141,79.141,0,0,0-.108-8.061,14.753,14.753,0,0,0-.044-3.15,42.287,42.287,0,0,1-.108-4.725,4.3,4.3,0,0,0-.122-1.467,2.128,2.128,0,0,0-.039-1.223,3.288,3.288,0,0,1-.117-1.213c-.073-.68.254-.856.885-.856,5.811,0,11.617,0,17.428.029a.763.763,0,0,1,.254.093,1.11,1.11,0,0,0,.763.044c.636.308,1.355-.064,1.991.235a.152.152,0,0,0,.225.039c.44.284.978-.044,1.423.24a.122.122,0,0,0,.2.044c.357.24.827-.039,1.174.259h0C732.023,68.306,732.385,68.105,732.62,68.321Z" transform="translate(-361.369 -34.228)"/>
    <path id="Caminho_150" data-name="Caminho 150" d="M1016.53,102.986l-.108-.034-.088.078c-.274.2-.641.064-.924.225l-.1-.039-.073.073c-.435.313-.978-.039-1.428.259l-.117-.039-.108.064c-.822.338-1.717-.083-2.539.245a4.691,4.691,0,0,0-1.59.039,1.267,1.267,0,0,1-1.1,0,4.241,4.241,0,0,0-1.551-.054c-.655-.274-1.375.059-2.025-.22a.513.513,0,0,0-.455-.054c-.489-.245-1.008.034-1.467-.225l-.108-.073-.122.034c-.342-.254-.8,0-1.145-.23l-.117-.068-.132.034c-.333-.279-.792,0-1.13-.254l-.088-.073-.108.034c-.357-.24-.832.034-1.174-.259h0c-.328-.284-.783,0-1.115-.249l-.088-.078-.108.039c-.562-.132-1.091-.161-1.066-1.037.073-2.265,0-4.534.034-6.8,0-.274-.142-.69.4-.665h0c.147.166.4.117.558.264h0c.191.279.626,0,.787.338h-.024c.191.1.455.054.577.284h-.024c.191.1.44.068.587.269h0c.176.122.421.093.582.254h0c.2.269.631,0,.8.328h0c.191.093.43.078.6.245h0c.21.259.631,0,.812.323h-.029c.191.1.426.078.6.22a.113.113,0,0,0,.186.049c.205.1.45.083.636.225a.117.117,0,0,0,.191.049c.274.186.66,0,.9.274h0c.249.21.611,0,.856.24a.117.117,0,0,0,.2.044c.357.24.831-.039,1.179.259h0c.421.308.978-.029,1.389.245a.489.489,0,0,0,.45.054,21.439,21.439,0,0,0,4.891,0l.093.044.078-.073c.323-.293.792,0,1.115-.269h0a1.179,1.179,0,0,1,.616-.22h-.025c.093-.269.372-.21.563-.308h0c.083-.235.382-.157.489-.347h0a1.718,1.718,0,0,0,.274-.259h0c.181-.122.1-.43.357-.489v.029c0-.161.117-.24.2-.347a.117.117,0,0,0,.049-.191,5.247,5.247,0,0,0-.034-2.553h0c-.147-.152-.093-.406-.274-.543h0a1.6,1.6,0,0,1-.245-.323h0a.406.406,0,0,1-.264-.328l.024.029a2.23,2.23,0,0,1-.572-.582h0a.391.391,0,0,1-.323-.269h0a.909.909,0,0,1-.323-.254h0c-.264-.2-.567-.342-.832-.548h0c-.142-.166-.43-.1-.528-.333h.029c-.191-.1-.46-.054-.572-.3h0a15.853,15.853,0,0,1-1.433-.743l-.073-.083h-.112c-.2-.1-.489-.059-.616-.3h.029c-.2-.093-.435-.078-.6-.245h0c-.161-.157-.406-.117-.567-.264h0c-.2-.279-.616,0-.8-.323h0c-.181-.117-.426-.093-.587-.249h0c-.2-.269-.626,0-.8-.333h.029c-.2-.1-.435-.078-.6-.245h0c-.157-.152-.4-.1-.562-.249l-.078-.073h-.1c-.205-.1-.489-.064-.626-.284h0c-.181-.112-.426-.088-.587-.249h0c-.152-.161-.4-.113-.558-.264h0c-.2-.274-.626,0-.792-.338h.029c-.2-.1-.46-.054-.577-.293h.024c-.191-.1-.455-.049-.572-.293h.029c-.152,0-.23-.147-.347-.215h0c-.122-.191-.382-.127-.528-.279h0c-.132-.176-.406-.113-.528-.308h0c-.161-.142-.445-.078-.543-.328h.029c-.152,0-.24-.137-.342-.23h0c-.127-.176-.43-.1-.489-.352h.029a.435.435,0,0,1-.338-.249h0a2.6,2.6,0,0,1-.313-.249h0c-.22-.254-.611-.3-.758-.641h0a.3.3,0,0,1-.3-.289h.024a.323.323,0,0,1-.3-.3v.024a4.343,4.343,0,0,1-.9-1.066h0c-.108-.093-.225-.181-.235-.342v.029c-.264-.088-.2-.377-.328-.543h0c-.205-.122-.152-.4-.308-.548h0c-.171-.166-.152-.406-.245-.6V77.9c-.328-.225-.117-.631-.3-.9l.039-.1-.073-.073c-.328-.66.039-1.414-.254-2.079a1.431,1.431,0,0,0,.083-.176s-.054-.044-.083-.064c.264-.577-.034-1.228.235-1.8a.142.142,0,0,0,.039-.22c.21-.259,0-.631.259-.88h0c.259-.21,0-.626.318-.812h0c.117-.181.073-.44.289-.572v.024c.122-.176.064-.455.313-.558v.029c0-.152.137-.24.23-.342h0c.225-.245.328-.582.592-.8h0a.655.655,0,0,1,.289-.3h0a.842.842,0,0,1,.293-.293h0a.791.791,0,0,1,.289-.293h0a.724.724,0,0,1,.289-.293h0a.671.671,0,0,1,.3-.284h0a.391.391,0,0,1,.333-.259h-.024c.059-.264.372-.186.489-.357h0c.1-.093.186-.21.338-.23h-.029c.088-.24.382-.171.519-.337h0c.1-.1.186-.215.347-.22h-.029c.1-.264.372-.205.563-.308h-.029c.132-.245.411-.2.616-.3a.112.112,0,0,0,.186-.054c.157-.137.4-.088.553-.245h0c.181-.166.43-.152.641-.249a.113.113,0,0,0,.186-.054c.191-.137.43-.127.636-.225a.113.113,0,0,0,.186-.044c.269-.205.631-.054.91-.235a.112.112,0,0,0,.191-.039c.347-.259.807,0,1.154-.245a.147.147,0,0,0,.225-.029c.553-.293,1.193.039,1.751-.235a.978.978,0,0,0,.724-.054,13.535,13.535,0,0,1,3.85,0,.978.978,0,0,0,.724.044c.651.279,1.374-.054,2.025.225a.489.489,0,0,0,.45.054c.489.245,1.012-.034,1.467.225a.147.147,0,0,0,.225.034c.44.3.978-.054,1.428.259l.073.073.1-.044c.377.215.831,0,1.2.23a.117.117,0,0,0,.2.044c.362.23.817,0,1.179.225a.161.161,0,0,0,.215.039c.445,1.467.1,2.979.186,4.466.054,1.052,0,2.1,0,3.155,0,.45-.034.876-.68.616h0c-.147-.166-.4-.113-.553-.254l-.078-.078h-.108c-.205-.1-.489-.068-.631-.274h.024c-.181-.127-.421-.1-.587-.249h0c-.2-.279-.621,0-.8-.333h.029c-.2-.1-.43-.083-.607-.23h0c-.205-.274-.6,0-.807-.3h0c-.225-.24-.621,0-.832-.293h0c-.245-.215-.621,0-.851-.269h0c-.235-.23-.611,0-.846-.264h0c-.313-.3-.792.029-1.1-.284h0c-.328-.284-.778,0-1.11-.245a.514.514,0,0,0-.455-.054c-.558-.259-1.189.039-1.746-.215a4.94,4.94,0,0,0-1.957,0c-.553.274-1.179-.054-1.727.225l-.113-.034-.088.073c-.23.225-.6,0-.822.264h0c-.152.157-.406.108-.553.274h0c-.1.093-.186.215-.347.22h0a2.176,2.176,0,0,1-.577.582h0c0,.157-.127.245-.215.347h0c-.3.313,0,.773-.254,1.1a.67.67,0,0,0,0,.558c.2.245,0,.6.245.836h0c.171.142.117.4.289.543h0a1.12,1.12,0,0,1,.249.318h0a.489.489,0,0,1,.274.318h0a.45.45,0,0,1,.308.284h0a.572.572,0,0,1,.308.279h0a1.426,1.426,0,0,1,.308.259h0c.132.171.426.1.489.342h-.029c.152,0,.24.137.342.23h0c.137.171.416.108.528.318h0c.176.122.445.073.563.308h-.029c.191.1.455.054.577.289h-.024c.191.1.455.054.577.289h-.029c.2.1.45.059.587.279h0c.186.113.43.083.592.254h0c.156.157.406.112.567.259h0c.2.279.616,0,.8.323h0c.186.108.426.088.6.24h0c.2.274.626,0,.8.333h0c.191.1.43.078.6.235h0c.206.269.631,0,.8.333h-.025c.191.093.43.073.6.24h0c.152.157.4.108.558.245a.117.117,0,0,0,.186.059c.205.1.489.059.621.284h0c.186.113.43.088.592.254h0c.156.152.411.108.563.269h0c.147.161.4.117.553.264h0c.142.176.4.122.548.274h0c.137.176.4.122.538.284h0c.147.161.4.113.553.279h0c.142.166.425.1.523.333h-.029c.152,0,.225.147.342.215h0c.117.191.4.122.489.318h0a2.446,2.446,0,0,1,.822.592h0a.577.577,0,0,1,.323.264h0a2.99,2.99,0,0,1,.308.249h0a6.847,6.847,0,0,1,1.634,1.668h0a.665.665,0,0,1,.25.328l-.025-.029c.235.093.156.386.342.489h0c.083.108.2.191.22.342v-.029c.249.113.2.382.3.572V87.9c.342.171.068.6.328.807h0c.25.23.039.607.264.846h0c.362.655,0,1.409.274,2.074,0,.059-.059.117-.078.176s.054.044.083.064c-.284.67.039,1.409-.235,2.079a.2.2,0,0,0-.034.249c-.225.24-.034.607-.245.851a.117.117,0,0,0-.049.191c-.1.205-.088.455-.245.636h0c-.166.147-.117.4-.269.558h0c-.181.137-.122.391-.284.538h0c-.166.142-.1.421-.318.533h0a1.287,1.287,0,0,1-.24.323h0c-.245.225-.313.6-.621.778V98.57a.489.489,0,0,1-.269.323h0a.71.71,0,0,1-.294.293h0a.455.455,0,0,1-.318.269h0a.328.328,0,0,1-.318.279l.024-.024c-.161.338-.523.421-.8.616h0a.445.445,0,0,1-.337.249l.029-.024c-.083.259-.372.191-.533.333h0c-.127.2-.4.137-.543.3h0c-.147.161-.406.1-.543.279h0c-.156.147-.406.1-.558.264h0c-.161.161-.406.132-.582.254h0c-.2.3-.6.044-.807.313h0c-.23.235-.607,0-.831.269h0C1017.175,102.967,1016.818,102.805,1016.53,102.986Z" transform="translate(-508.611 -32.312)"/>
    <path id="Caminho_151" data-name="Caminho 151" d="M801.85,97.7a4.69,4.69,0,0,0,.044,1.771c.3,1.306-.083,2.651.22,3.952a1.041,1.041,0,0,0,.059.729c.176.489.191.954-.489.944-3.287-.049-6.569.157-9.851-.112-.034,0-.064-.064-.093-.1v-.362c.3-.929-.078-1.917.22-2.852a2.549,2.549,0,0,0,.059-1.272c.249-1.957.034-3.913.112-5.9a4.833,4.833,0,0,1,.1-1.634c.171-4.221.186-8.438,0-12.659-.24-2.03-.039-4.07-.108-6.1a5.378,5.378,0,0,0-.117-1.751,4.343,4.343,0,0,0-.049-1.776c-.44-3.424-.44-3.424,2.935-3.424h6.163c.377,0,.978-.333,1.105.386a1.751,1.751,0,0,0-.049.978c-.323,1.673.108,3.38-.225,5.053a6.134,6.134,0,0,0-.039,2.049,2.187,2.187,0,0,0-.122.939V96.718A2.221,2.221,0,0,0,801.85,97.7Z" transform="translate(-404.475 -34.265)"/>
    <path id="Caminho_152" data-name="Caminho 152" d="M305.744,93.153l-.073-.078.044-.093c-.166-.289-.024-.651-.23-.929a.117.117,0,0,1-.049-.186c-.093-.205-.083-.455-.245-.636h0c-.161-.152-.117-.4-.264-.558h0c-.176-.137-.117-.406-.293-.538h0c-.147-.147-.093-.426-.313-.523a.514.514,0,0,0-.249-.3c-.064-.113-.166-.191-.235-.3h0a6.784,6.784,0,0,0-1.36-1.365h0a2.828,2.828,0,0,1-.3-.245h0a.616.616,0,0,0-.318-.249,2.28,2.28,0,0,0-.8-.558c-.117-.2-.391-.142-.528-.308h0a3.839,3.839,0,0,0-.856-.489c-.137-.235-.411-.191-.611-.293a.112.112,0,0,1-.181-.059c-.161-.137-.406-.083-.553-.249h0c-.161-.152-.386-.142-.577-.23-.186-.318-.6-.068-.817-.308h0a.367.367,0,0,0-.489-.1c.171-.132.386-.186.567-.308l.225-.137.078-.078h.108c.205-.1.489-.068.631-.274h-.024c.181-.127.426-.1.582-.259h0c.142-.166.411-.108.538-.3.161-.122.421-.078.518-.3a.651.651,0,0,0,.323-.225h0c.122-.166.416-.1.489-.338a.386.386,0,0,0,.313-.245.915.915,0,0,0,.293-.254h0c.1-.078.191-.176.294-.264h0a2.417,2.417,0,0,1,.274-.274h0c.088-.1.186-.186.264-.289h0a.949.949,0,0,0,.264-.293.489.489,0,0,0,.249-.3c.22-.088.156-.377.328-.489h0a.739.739,0,0,0,.215-.328c.225-.108.191-.352.274-.538.333-.166.059-.592.333-.788h0c.23-.254.044-.621.254-.88a.147.147,0,0,1,.034-.225,5.469,5.469,0,0,0,0-2.446.117.117,0,0,1-.039-.2c-.186-.274,0-.646-.254-.9h0c-.264-.2,0-.621-.328-.8a2.666,2.666,0,0,0-.538-.846h0a6.461,6.461,0,0,0-1.614-1.688h0a3,3,0,0,0-.308-.235,3.057,3.057,0,0,0-.822-.538c-.122-.2-.391-.147-.533-.308h0c-.152-.161-.4-.117-.558-.269h0c-.157-.161-.386-.152-.577-.235-.186-.323-.6-.068-.812-.313h0c-.22-.264-.6-.044-.836-.279h0c-.313-.323-.792,0-1.11-.284h0c-.352-.293-.827-.034-1.2-.259l-.093.044-.078-.073c-.553-.323-1.2.029-1.756-.245a1.056,1.056,0,0,1-.724-.054,3.659,3.659,0,0,0-1.492-.108H274.435c-3.8,0-3.8,0-3.424,3.854,0,.186.024-.054.049.127a5.342,5.342,0,0,1,.054,1.829,5.381,5.381,0,0,1,.108,1.771c.073,2.191-.132,4.4.113,6.584.181,3.395.127,6.789,0,10.184a6.862,6.862,0,0,0-.1,2.025c-.088,2.128.152,4.26-.127,6.383a2.358,2.358,0,0,1-.039,1.223c-.308,1.022.073,2.1-.225,3.126a.978.978,0,0,1,0,.66c.4.367.876.186,1.311.186H285.46c2.186,0,4.368.054,6.545-.127l.45-.054c.558-.274,1.2.078,1.756-.245l.078-.073.093.044c.377-.215.832,0,1.2-.23l.083-.073.108.029c.279-.176.641-.024.91-.23l.083-.073.108.029c.269-.191.655,0,.9-.279h-.024c.24-.22.636,0,.841-.293h-.024c.186-.108.426-.093.6-.235h0c.191-.279.616,0,.783-.328.186-.088.43-.059.548-.279.186-.083.43-.054.543-.274.137,0,.22-.137.323-.215h0c.122-.176.391-.117.489-.313a1.325,1.325,0,0,0,.313-.23h0c.113-.181.411-.108.489-.347a.328.328,0,0,0,.3-.259.489.489,0,0,0,.289-.249.7.7,0,0,0,.274-.274.606.606,0,0,0,.264-.279.382.382,0,0,0,.254-.318,1.8,1.8,0,0,0,.572-.783c.2-.117.147-.386.308-.528h0c.161-.152.113-.406.274-.558h0c.166-.181.152-.43.245-.636a.117.117,0,0,1,.054-.191c.205-.254.029-.616.24-.876a.147.147,0,0,1,.034-.225A7.762,7.762,0,0,0,305.744,93.153Zm-13.207,6.32a15.114,15.114,0,0,1-5.478,1.11c-1.648.059-3.3,0-4.95,0-1.115,0-1.115-.024-1.174-1.1-.318-5.909-.269-11.822-.215-17.736.029-3.067.176-6.139.23-9.205,0-.607.127-.871.807-.939a23.884,23.884,0,0,1,9.122.641c2.827.817,3.849,3.14,3.326,5.772a4.3,4.3,0,0,1-2.265,2.935,9.9,9.9,0,0,1-5.155,1.262c-1.467,0-1.125-.108-1.619,1.145s-.978,2.646-1.526,4.158c1.565.068,2.935-.044,4.3.122a11.212,11.212,0,0,1,5.943,2.279,5.464,5.464,0,0,1-1.34,9.553Z" transform="translate(-138.364 -34.281)"/>
    <path id="Caminho_153" data-name="Caminho 153" d="M866.64,92.308h0c-.249-.22-.029-.6-.274-.827h0c-.264-.2,0-.621-.328-.792a3.226,3.226,0,0,0-.489-.856h0a4.226,4.226,0,0,0-.577-.8.562.562,0,0,0-.264-.289.846.846,0,0,0-.269-.289,1.192,1.192,0,0,0-.269-.274,1.029,1.029,0,0,0-.279-.264.846.846,0,0,0-.284-.274.445.445,0,0,0-.308-.249,2.319,2.319,0,0,0-.792-.577,2.979,2.979,0,0,0-.832-.533c-.113-.205-.386-.152-.528-.308h0c-.147-.166-.406-.117-.553-.279h0c-.152-.161-.406-.117-.562-.269h0c-.156-.166-.391-.147-.572-.245-.181-.308-.6-.044-.792-.318h0a2.757,2.757,0,0,0-.646-.235.113.113,0,0,1-.181-.049c-.191-.558.426-.3.543-.543h0c.205-.259.621,0,.8-.323.191-.083.435-.059.553-.274.181-.088.43-.054.538-.279a.67.67,0,0,0,.323-.22h0c.127-.166.4-.113.489-.313a.881.881,0,0,0,.313-.24h0c.23-.23.587-.3.758-.607a.338.338,0,0,0,.3-.269.4.4,0,0,0,.274-.259.367.367,0,0,0,.264-.3c.3-.176.377-.528.607-.763h0a.686.686,0,0,0,.22-.318c.22-.108.186-.357.293-.523.205-.132.161-.4.289-.567h0c.293-.205.054-.6.3-.827h0c.293-.352.034-.827.259-1.2V75.071c-.23-.367.039-.841-.264-1.193h0c-.24-.225,0-.626-.3-.822-.1-.181-.068-.421-.274-.548a2.293,2.293,0,0,0-.548-.812.617.617,0,0,0-.259-.3,1.825,1.825,0,0,0-.254-.293h0c-.093-.093-.186-.186-.269-.279h0c-.1-.088-.186-.186-.289-.264h0a.921.921,0,0,0-.293-.254.382.382,0,0,0-.308-.245c-.078-.24-.367-.176-.489-.333h0a3.516,3.516,0,0,0-.856-.489c-.117-.22-.362-.191-.548-.279-.171-.323-.6-.049-.783-.328h0c-.166-.137-.391-.132-.582-.22-.22-.313-.616-.1-.88-.293a.113.113,0,0,1-.191-.044c-.245-.215-.611,0-.856-.249a.181.181,0,0,1-.245-.034c-.342-.245-.8.034-1.13-.24a.186.186,0,0,1-.245-.034c-.548-.279-1.174.059-1.717-.23l-.489-.039c-3.375-.269-6.755-.068-10.13-.108-3.248-.039-6.5,0-9.739,0-.4,0-1.262-.43-1.066.655A1.874,1.874,0,0,1,832,68.834c.338,1.844-.1,3.722.235,5.571a8.039,8.039,0,0,1,.034,2.323,2.836,2.836,0,0,1,.122,1.213V95.355a3.028,3.028,0,0,1-.117,1.218,5.983,5.983,0,0,1-.039,2.045c-.338,1.467.108,2.993-.235,4.471a1.066,1.066,0,0,1-.049.758c-.362,1.027.1,1.252,1.057,1.247,5.033,0,10.066-.029,15.1,0a29.088,29.088,0,0,0,5.053-.147.45.45,0,0,1,.45-.044c.489-.24,1.008.029,1.467-.22l.113-.064.132.029c.421-.313.978.064,1.4-.274h0c.323-.289.8.034,1.115-.279h0c.235-.235.6-.029.841-.249l.078-.078.108.029a2.759,2.759,0,0,0,.646-.235h0c.205-.269.6,0,.807-.3h0c.166-.137.416-.1.577-.254h0c.142-.171.4-.117.548-.269h0c.137-.176.391-.122.538-.284h0c.137-.161.4-.112.528-.3a3.458,3.458,0,0,0,.822-.553,2.051,2.051,0,0,0,.308-.235h0a7.977,7.977,0,0,0,1.648-1.648h0c.078-.108.191-.186.235-.313.2-.112.137-.382.308-.489h0c.083-.1.2-.186.21-.338.342-.147.064-.582.338-.763h0c.152-.191.142-.435.24-.646a.113.113,0,0,1,.044-.186c.245-.367,0-.827.23-1.2V93.741C866.611,93.3,866.963,92.738,866.64,92.308Zm-9.5,2.632a5.366,5.366,0,0,1-3.664,4.559,13.814,13.814,0,0,1-4.808,1.027c-1.922.068-3.849,0-5.772.059-.719,0-.944-.225-.949-.944-.044-4.891-.176-9.783-.181-14.674,0-3.986.132-7.968.21-11.954,0-1.262,0-1.291,1.228-1.418a24.52,24.52,0,0,1,8.061.45c2.9.66,4.192,2.367,4.114,5.155a4.369,4.369,0,0,1-2.446,3.849,9.294,9.294,0,0,1-5.165,1.125,1.233,1.233,0,0,0-1.467.978c-.445,1.384-.978,2.734-1.575,4.309,1.639.093,3.057-.024,4.466.147a11.167,11.167,0,0,1,5.581,2.1,5.583,5.583,0,0,1,2.372,5.234Z" transform="translate(-424.955 -34.258)"/>
    <path id="Caminho_154" data-name="Caminho 154" d="M907.52,143.995l0,0h0Z" transform="translate(-463.623 -73.56)"/>
    <path id="Caminho_155" data-name="Caminho 155" d="M968.88,144.53Z" transform="translate(-494.97 -73.836)"/>
    <path id="Caminho_156" data-name="Caminho 156" d="M941.28,67.54Z" transform="translate(-480.87 -34.504)"/>
    <path id="Caminho_157" data-name="Caminho 157" d="M947.808,104.7c-.113-.2-.059-.489-.293-.616-.083-.191-.073-.416-.235-.577h0c-.152-.157-.112-.406-.264-.562h0c-.274-.191,0-.616-.328-.788-.083-.186-.064-.426-.264-.562-.1-.181-.083-.411-.24-.567h0c-.161-.152-.117-.4-.264-.558h0c-.279-.191,0-.616-.333-.787-.083-.186-.064-.426-.254-.567h0c-.122-.176-.093-.421-.254-.582h0c-.166-.147-.112-.4-.254-.553a.117.117,0,0,1-.054-.186c-.1-.2-.064-.489-.289-.607-.088-.191-.078-.421-.24-.582h0c-.156-.157-.112-.406-.264-.567h0c-.274-.2,0-.616-.328-.788-.083-.191-.064-.426-.259-.562-.1-.181-.088-.411-.245-.572h0c-.161-.152-.122-.4-.269-.558h0c-.279-.186,0-.611-.328-.783-.088-.191-.068-.426-.259-.567h0c-.127-.176-.1-.421-.254-.582h0c-.166-.147-.113-.391-.254-.548a.117.117,0,0,1-.054-.186c-.1-.2-.064-.489-.289-.611-.088-.191-.073-.421-.24-.577h0c-.152-.157-.113-.4-.264-.562h0c-.274-.191,0-.611-.328-.783-.088-.191-.064-.43-.264-.562-.1-.181-.088-.416-.245-.572h0c-.161-.152-.117-.4-.264-.558h0c-.279-.191,0-.611-.328-.783-.088-.191-.068-.426-.259-.567h0c-.127-.176-.1-.421-.254-.582h0c-.166-.147-.113-.391-.25-.548a.116.116,0,0,1-.059-.186c-.1-.2-.059-.489-.289-.611-.083-.191-.073-.421-.235-.577h0c-.152-.157-.113-.406-.264-.562h0c-.274-.191,0-.616-.328-.783-.083-.191-.064-.43-.264-.567-.1-.181-.083-.411-.24-.567h0c-.161-.152-.117-.4-.264-.562h0c-.279-.191,0-.616-.328-.783-.083-.191-.064-.43-.259-.572v.024c-.122-.181-.093-.421-.254-.587h0c-.166-.147-.113-.391-.25-.553a.113.113,0,0,1-.054-.181c-.1-.2-.064-.489-.294-.611-.083-.191-.073-.421-.235-.582h0c-.152-.157-.112-.406-.264-.563h0c-.274-.191,0-.616-.328-.787-.083-.186-.064-.426-.264-.563-.1-.181-.083-.411-.24-.567h0c-.161-.152-.117-.4-.264-.558h0c-.279-.191,0-.616-.333-.787-.083-.186-.064-.426-.254-.567h0c-.122-.176-.093-.421-.254-.582h0c-.166-.147-.112-.4-.254-.553a.117.117,0,0,1-.054-.186c-.1-.2-.064-.489-.289-.607-.088-.191-.073-.426-.249-.577h0c-.137-.166-.1-.411-.254-.577h0c-.274-.2,0-.621-.328-.788-.083-.191-.054-.44-.284-.553l.034.039a30.174,30.174,0,0,0-7.4-.044c-.166.147-.137.391-.259.558h0c-.3.2-.044.6-.3.817h0c-.157.161-.147.386-.23.577-.323.176-.054.6-.328.792h0c-.152.166-.127.406-.25.582h0c-.205.161-.176.426-.274.631a.117.117,0,0,1-.054.186c-.142.157-.088.4-.254.553h0c-.152.161-.142.386-.23.577-.323.171-.049.6-.328.787h0c-.147.161-.108.411-.259.567h0c-.161.161-.152.386-.235.582-.323.166-.049.592-.333.778h0c-.147.161-.1.406-.264.558h0c-.157.157-.137.386-.24.567-.2.137-.181.377-.264.567-.323.166-.054.592-.328.783h0c-.152.157-.112.406-.264.563h0c-.166.161-.156.386-.24.582-.323.166-.049.592-.333.778h0c-.147.161-.1.406-.264.558h0c-.161.161-.132.4-.254.582h0c-.2.142-.176.377-.254.572-.328.166-.059.592-.333.783h0c-.152.157-.108.406-.269.558h0c-.161.157-.142.391-.245.572-.2.132-.181.372-.259.563-.328.166-.059.592-.333.783h0c-.152.157-.108.406-.269.558h0c-.161.157-.142.391-.245.572-.2.137-.181.372-.259.563-.328.171-.059.592-.333.787h0c-.152.157-.108.406-.269.558h0c-.161.161-.142.391-.245.572-.2.137-.181.372-.259.563-.328.166-.054.592-.338.778h0c-.147.161-.1.406-.264.558h0c-.161.161-.132.4-.254.582h0c-.2.142-.171.377-.259.567-.23.142-.191.411-.289.611.044.083.029.142-.059.181-.137.161-.083.406-.25.553h0c-.161.152-.117.406-.269.563h0c-.166.157-.147.386-.249.572-.2.132-.181.372-.264.558-.328.171-.054.6-.328.788h0c-.152.152-.108.4-.269.553h0c-.161.157-.132.4-.254.582h0c-.2.142-.176.377-.259.567-.23.142-.191.411-.289.611a.113.113,0,0,1-.059.181c-.142.161-.088.406-.249.553h0c-.161.152-.117.406-.269.563h0c-.166.157-.147.386-.245.572-.2.132-.181.372-.264.558-.328.166-.049.592-.333.778h0c-.142.161-.1.406-.259.558h0c-.161.152-.117.4-.274.558h0c-.166.152-.147.386-.245.572-.205.132-.181.367-.264.558-.328.166-.054.592-.333.778h0c-.142.157-.1.406-.264.558h0c-.161.152-.108.406-.269.553-.029.543.391.4.665.4h7.474a.915.915,0,0,0,.934-.406h0c.235-.235.029-.611.264-.846h0c.259-.225.044-.607.279-.841h0c.264-.225.044-.607.279-.841h0c.264-.225.044-.607.279-.841h0c.269-.22.049-.607.279-.836h0c.264-.22.044-.607.279-.836h0c.269-.215.034-.607.289-.827h0c.249-.215,0-.607.284-.817h0c.142-.166.137-.391.22-.582.318-.2.078-.6.3-.832h0c.289-.489.753-.382,1.2-.406a5.792,5.792,0,0,0,1.859-.108,6.7,6.7,0,0,1,1.927,0,.372.372,0,0,0,.548,0,44.088,44.088,0,0,1,6.329.029c.978.333,2.045-.122,3.033.254h0c.264.2,0,.621.323.8.083.191.073.421.235.582h0c.259.21,0,.626.318.807.088.191.078.416.23.577h0c.264.21,0,.616.308.817v-.024c.122.181.1.421.245.587h0c.274.205,0,.6.3.807h0c.245.22,0,.631.313.822.083.186.078.411.225.577h0c.264.215.024.607.293.817h0c.24.225,0,.631.3.832v-.029c.108.181.083.421.254.567a.8.8,0,0,0,.367.157h9.6a.44.44,0,0,0,.445-.235ZM921.282,91.063c1.639-4.319,3.487-8.418,5.439-12.791,1.888,4.373,3.629,8.486,5.317,12.815C928.394,91.185,924.936,91.165,921.282,91.063Z" transform="translate(-463.5 -34.177)"/>
    <path id="Caminho_158" data-name="Caminho 158" d="M657,104.677c-.108-.2-.054-.489-.289-.616-.083-.191-.073-.416-.24-.577h0c-.152-.157-.112-.406-.264-.562h0c-.274-.191,0-.616-.328-.783-.083-.191-.064-.43-.264-.567-.1-.181-.083-.411-.24-.567h0c-.161-.157-.117-.4-.264-.562h0c-.279-.191,0-.616-.328-.787-.083-.186-.064-.426-.259-.567v.024c-.122-.181-.093-.426-.254-.587h0c-.161-.147-.112-.4-.249-.553a.117.117,0,0,1-.059-.186c-.1-.2-.059-.489-.289-.607-.083-.191-.068-.426-.245-.577h0c-.142-.166-.108-.411-.259-.577h0c-.274-.191,0-.616-.328-.787-.083-.191-.064-.426-.264-.562-.1-.181-.083-.411-.24-.572h0c-.161-.152-.117-.4-.264-.558h0c-.279-.191,0-.616-.333-.788-.083-.191-.064-.426-.259-.567h0c-.122-.176-.093-.421-.254-.582h0c-.161-.152-.108-.4-.25-.553a.117.117,0,0,1-.054-.186c-.1-.2-.064-.489-.294-.611-.083-.191-.068-.421-.245-.572h0c-.142-.166-.1-.416-.264-.572h0c-.264-.2,0-.616-.323-.792-.083-.191-.059-.426-.264-.558-.1-.186-.078-.421-.245-.572h0c-.157-.157-.113-.406-.269-.563h0c-.274-.191,0-.616-.328-.783-.083-.191-.064-.43-.254-.572h0c-.122-.176-.093-.421-.254-.582h0c-.166-.152-.122-.4-.264-.558h0c-.279-.186,0-.611-.333-.778-.083-.191-.069-.426-.245-.577h0c-.137-.166-.1-.411-.264-.567h0c-.264-.2,0-.621-.328-.792-.083-.191-.059-.426-.259-.562-.1-.181-.083-.416-.249-.572h0c-.152-.157-.112-.406-.264-.563h0c-.269-.191,0-.616-.328-.783-.083-.191-.059-.43-.259-.567-.1-.181-.088-.411-.24-.567h0c-.161-.152-.117-.4-.264-.558h0c-.279-.186,0-.611-.328-.783-.083-.186-.068-.421-.245-.572h0c-.142-.166-.1-.416-.264-.572h0c-.166-.147-.112-.4-.249-.553a.117.117,0,0,1-.059-.186c-.1-.2-.059-.489-.289-.607-.083-.191-.073-.421-.24-.582h0c-.152-.157-.112-.406-.264-.567h0c-.274-.191,0-.616-.328-.788-.083-.191-.064-.426-.264-.562-.1-.181-.083-.411-.24-.572h0c-.161-.152-.117-.4-.264-.558h0c-.279-.191,0-.616-.328-.787-.083-.191-.064-.426-.259-.567h0c-.122-.176-.093-.421-.254-.582h0c-.161-.152-.112-.4-.249-.553a.117.117,0,0,1-.059-.186c-.1-.2-.044-.489-.318-.6l.039.044a26.54,26.54,0,0,0-7.366,0l.034-.034c-.245.137-.2.411-.3.616a.112.112,0,0,1-.054.186c-.142.166-.108.406-.23.582v-.024c-.3.2-.039.607-.313.807h0c-.147.166-.112.406-.254.577h0c-.176.152-.161.382-.24.577-.328.171-.064.592-.328.792h0c-.152.157-.137.386-.24.567-.21.152-.181.421-.279.621a.117.117,0,0,1-.054.186c-.142.157-.088.406-.254.553h0c-.157.161-.142.391-.24.572-.215.152-.181.416-.279.621a.122.122,0,0,1-.059.186c-.142.157-.088.4-.249.553h0c-.161.161-.132.406-.254.582h0c-.2.142-.176.382-.259.572-.323.171-.054.592-.328.788h0c-.152.161-.117.406-.259.577h0c-.176.152-.161.382-.245.572-.323.171-.049.6-.328.783h0c-.147.157-.1.406-.264.558h0c-.161.157-.142.391-.245.572-.2.137-.181.372-.259.563-.328.171-.059.592-.333.787h0c-.152.161-.112.406-.264.567h0c-.166.157-.147.386-.249.572-.2.132-.181.372-.259.558-.328.171-.059.6-.333.787h0c-.152.161-.112.411-.264.567h0c-.166.157-.147.391-.25.572-.2.132-.181.372-.259.563-.328.171-.064.592-.328.792h0c-.157.157-.117.406-.269.563h0c-.166.157-.147.391-.249.572-.2.137-.181.372-.259.563-.328.166-.059.592-.333.783h0c-.152.157-.108.406-.269.558h0c-.161.157-.142.391-.245.572-.2.137-.181.372-.259.563-.328.171-.059.592-.333.788h0c-.152.157-.108.406-.269.558h0c-.166.161-.137.406-.259.582h0c-.2.142-.171.382-.259.572-.23.137-.191.406-.289.611a.112.112,0,0,1-.059.181c-.137.161-.083.406-.25.553h0c-.161.152-.117.4-.269.558h0c-.166.152-.152.386-.249.572-.2.132-.181.367-.264.558-.328.171-.054.592-.328.788h0c-.152.157-.108.406-.269.558h0c-.161.161-.132.406-.254.582h0c-.2.142-.176.382-.259.572-.215.122-.191.367-.274.553-.328.166-.054.592-.328.783h0c-.157.157-.108.406-.269.558h0c-.161.161-.132.406-.254.582h0c-.191.142-.171.382-.254.572-.23.137-.191.406-.293.607a.117.117,0,0,1-.054.186c-.142.157-.083.406-.254.543h0c-.152.157-.108.406-.264.558h0c-.161.161-.132.406-.254.582h0c-.2.142-.157.4-.274.577h0c-.054.543.411.44.655.44,2.588,0,5.175.049,7.763,0,.225,0,.489,0,.582-.264a.108.108,0,0,1,.049-.176c.142-.191.132-.43.225-.636a.117.117,0,0,1,.044-.191c.23-.23,0-.6.259-.827h0c.249-.225,0-.607.279-.832h0c.249-.225,0-.607.279-.832h0c.245-.225,0-.607.274-.827h0c.25-.215,0-.6.284-.812h0c.152-.191.142-.435.24-.646a.112.112,0,0,1,.049-.186c.137-.171.122-.391.21-.577.318-.2.078-.6.3-.832h0c.294-.2.049-.6.3-.822h0c.313-.558.856-.386,1.33-.411a32.257,32.257,0,0,0,4.182-.113,20.294,20.294,0,0,1,3.854,0,.2.2,0,0,0,.274,0h.274c1.639.352,3.316-.142,4.945.259h0c.274.2,0,.616.328.787.083.191.073.421.235.582h0c.259.21,0,.626.318.807.083.191.078.416.225.582h0c.269.205,0,.611.313.812v-.024c.122.176.088.416.23.582a.117.117,0,0,1,.054.186c.093.205.073.489.259.636h0c.24.22,0,.631.308.817.088.191.083.416.22.582h0c.274.205,0,.6.3.807h0c.24.225,0,.631.3.832v-.029c.108.186.083.43.254.592h0a2.093,2.093,0,0,0,1.184.205c2.4-.034,4.808,0,7.215,0a3.82,3.82,0,0,0,2-.191l-.039-.088ZM630.47,91.094c1.688-4.334,3.512-8.433,5.444-12.8,1.932,4.373,3.634,8.5,5.327,12.771-3.62.142-7.1.073-10.771.029Z" transform="translate(-314.936 -34.154)"/>
    <path id="Caminho_159" data-name="Caminho 159" d="M513.18,94.47Z" transform="translate(-262.168 -48.262)"/>
    <path id="Caminho_160" data-name="Caminho 160" d="M478.139,76.1l-.073-.073.044-.1c-.176-.284,0-.66-.259-.92h0c-.24-.22,0-.631-.308-.817-.088-.186-.064-.426-.269-.553-.1-.171-.059-.426-.293-.523a.489.489,0,0,0-.23-.323c-.205-.249-.284-.6-.6-.758a.308.308,0,0,0-.274-.3.323.323,0,0,0-.284-.274.318.318,0,0,0-.289-.279c-.171-.3-.523-.382-.768-.6h0a.607.607,0,0,0-.318-.23c-.093-.225-.372-.161-.489-.323h0a3.616,3.616,0,0,0-.861-.489c-.117-.22-.362-.191-.548-.274-.176-.328-.6-.064-.8-.323h0c-.181-.171-.43-.157-.641-.249a.117.117,0,0,1-.186-.054c-.191-.142-.43-.127-.636-.225a.112.112,0,0,1-.186-.044c-.245-.22-.607,0-.851-.245h0c-.337-.318-.817-.029-1.174-.269a.112.112,0,0,1-.191-.044c-.445-.284-.978.044-1.428-.24a.152.152,0,0,1-.225-.039c-.636-.3-1.355.073-1.991-.235a.514.514,0,0,1-.489-.029,3.262,3.262,0,0,0-1.467-.122H447.642c-3.15,0-3.15,0-2.935,3.179a.857.857,0,0,0,.1.254,3.6,3.6,0,0,1,.049,1.551,5.381,5.381,0,0,1,.108,1.771c.078,2.1-.127,4.207.112,6.31.186,4.4.171,8.8,0,13.207a4.7,4.7,0,0,0-.1,1.634c-.073,1.868.127,3.752-.117,5.62a2.568,2.568,0,0,1-.054,1.277c-.3.92.093,1.893-.23,2.813l.044.054-.034.059c.093.088.142.22.318.22h9.484c1.022,0,.773-.646.646-1.233a.934.934,0,0,1-.054-.724c-.308-1.394.083-2.832-.22-4.226A7.87,7.87,0,0,1,454.7,96.6a38.179,38.179,0,0,1,.024-7.014,1.076,1.076,0,0,1,.827,0,33.784,33.784,0,0,0,6.051,0,1.658,1.658,0,0,1,.978-.054c.748-.293,1.56.088,2.3-.23l.108-.068.117.039c.44-.284.978.029,1.423-.235l.117-.064.127.029c.337-.274.792,0,1.135-.245l.1-.073.122.034a6.1,6.1,0,0,0,1.957-.543h0c.23-.24.611,0,.832-.279h0c.215-.245.626,0,.812-.313.186-.088.426-.064.558-.264.176-.1.421-.073.548-.279.176-.1.43-.064.543-.289a2.358,2.358,0,0,0,.841-.528h0a1.958,1.958,0,0,0,.318-.24h0c.1-.181.406-.113.489-.347a.328.328,0,0,0,.293-.259.455.455,0,0,0,.293-.259.489.489,0,0,0,.254-.279.357.357,0,0,0,.264-.308c.3-.171.391-.489.592-.763a.489.489,0,0,0,.23-.323c.235-.1.2-.352.284-.533.22-.117.191-.362.274-.548.328-.181.073-.6.313-.812h0c.318-.313,0-.787.279-1.105A14.225,14.225,0,0,0,478.139,76.1ZM465.95,82.909a11.856,11.856,0,0,1-3.712,1.36,25.479,25.479,0,0,1-6.564.367c-1.017-.068-1.052-.117-1.061-1.14V78.14h.054V72.76c0-.69.22-.939.929-1.017a23.806,23.806,0,0,1,7.239.323,10.9,10.9,0,0,1,3.072,1.149A5.665,5.665,0,0,1,465.95,82.909Z" transform="translate(-227.117 -34.29)"/>
    <path id="Caminho_161" data-name="Caminho 161" d="M587.295,76.1l-.068-.073.039-.1c-.171-.284,0-.66-.259-.92h0c-.245-.215,0-.626-.313-.812-.083-.186-.059-.43-.279-.548a2.934,2.934,0,0,0-.489-.856c-.2-.249-.284-.6-.6-.758a.3.3,0,0,0-.269-.293.3.3,0,0,0-.274-.274.3.3,0,0,0-.293-.269c-.157-.318-.518-.391-.758-.607h0a.626.626,0,0,0-.318-.23c-.093-.225-.377-.161-.489-.323h0a3.75,3.75,0,0,0-.856-.489c-.132-.235-.406-.191-.611-.293a.112.112,0,0,1-.181-.054c-.161-.142-.406-.093-.558-.249h0c-.176-.171-.43-.157-.636-.249a.117.117,0,0,1-.186-.054c-.191-.142-.435-.127-.641-.225a.113.113,0,0,1-.186-.044c-.245-.22-.606-.029-.851-.245h0c-.333-.328-.817-.034-1.169-.274a.117.117,0,0,1-.2-.044c-.44-.284-.978.044-1.428-.24a.152.152,0,0,1-.225-.039c-.636-.3-1.35.073-1.986-.235a1.11,1.11,0,0,1-.763-.044,3.106,3.106,0,0,0-1.355-.108H557.086c-3.512,0-3.512,0-3.15,3.58,0,.186.029-.054.054.127a3.248,3.248,0,0,1,.039,1.5,5.267,5.267,0,0,1,.117,1.751c.068,2.035-.127,4.074.113,6.1.186,4.216.156,8.438,0,12.659a4.3,4.3,0,0,0-.113,1.6c-.073,1.957.137,3.957-.112,5.933a2.549,2.549,0,0,1-.059,1.272c-.293.934.083,1.922-.215,2.852a.342.342,0,0,1,0,.367.514.514,0,0,0,.489.215h9.21c1.027,0,.978-.528.768-1.242a.978.978,0,0,1-.049-.724c-.3-1.306.083-2.646-.215-3.952a6.134,6.134,0,0,1-.044-2.049,43.453,43.453,0,0,1,0-7.567,1.1,1.1,0,0,1,.827,0,33.75,33.75,0,0,0,6.046,0,1.673,1.673,0,0,1,.978-.054c.744-.293,1.56.088,2.3-.23l.1-.068.117.039c.445-.284.978.029,1.428-.235l.117-.064.127.029c.333-.274.792,0,1.13-.245l.1-.073.122.034c.333-.274.827.064,1.14-.3h-.029c.254-.191.626,0,.866-.254h0c.23-.24.616,0,.836-.279h0c.215-.245.626,0,.812-.313.186-.083.426-.064.558-.264.181-.1.421-.073.553-.279.171-.1.416-.068.533-.284.137,0,.215-.142.323-.205h0c.113-.186.386-.122.489-.313a3.515,3.515,0,0,0,.3-.23h0c.205-.249.572-.308.739-.611a.367.367,0,0,0,.3-.264.4.4,0,0,0,.259-.274.328.328,0,0,0,.264-.308c.318-.166.406-.489.6-.778h0a2.612,2.612,0,0,0,.523-.846c.22-.122.191-.367.279-.553.323-.191.078-.6.3-.822h0c.347-.308,0-.8.293-1.12a.191.191,0,0,1,.034-.245A14.238,14.238,0,0,0,587.295,76.1Zm-12.512,7.1a14.988,14.988,0,0,1-6.329,1.6,29.659,29.659,0,0,1-3.845,0c-.636-.029-.978-.249-.978-.978.054-1.829,0-3.664,0-5.5h.059V72.841c0-.45.049-.787.621-.851a21.791,21.791,0,0,1,8.707.611,9.781,9.781,0,0,1,1.751.773,5.18,5.18,0,0,1,2.886,4.921A5.351,5.351,0,0,1,574.783,83.206Z" transform="translate(-282.899 -34.293)"/>
  </g>
</svg>
